<svg width="280" height="283" fill="none" xmlns="http://www.w3.org/2000/svg"><path d="M235.369 255.822a77.236 77.236 0 0 0 23.827-27.048c35.615-66.556 27.571-164.698-41.017-206.793-31.702-19.453-77.33-31.765-111.599-11.783C78.79 26.4 61.756 56.91 47.662 84.666c-8.854 17.483-16.15 36.246-27.067 52.58-14.156 21.18-29.74 49.471-14.006 74.083 21.44 33.524 61.933 48.831 98.651 58.912 39.839 10.932 84.639 12.486 121.437-8.844a115.574 115.574 0 0 0 8.692-5.575Z" fill="#C8C8C8"/><path opacity=".7" d="M235.369 255.822a77.236 77.236 0 0 0 23.827-27.048c35.615-66.556 27.571-164.698-41.017-206.793-31.702-19.453-77.33-31.765-111.599-11.783C78.79 26.4 61.756 56.91 47.662 84.666c-8.854 17.483-16.15 36.246-27.067 52.58-14.156 21.18-29.74 49.471-14.006 74.083 21.44 33.524 61.933 48.831 98.651 58.912 39.839 10.932 84.639 12.486 121.437-8.844a115.574 115.574 0 0 0 8.692-5.575Z" fill="#fff"/><g opacity=".3" stroke="#000" stroke-miterlimit="10"><path opacity=".3" d="M266.71 35.94h-64.177v84.071h64.177v-84.07Z"/><path opacity=".3" d="M254.934 51.366H214.31v53.219h40.624v-53.22Z"/></g><path d="M187.498 26.519H17.586v150.863h169.912V26.519Z" fill="#263238" stroke="#263238" stroke-miterlimit="10"/><path d="M184.277 22.846H14.365v150.863h169.912V22.846Z" fill="#fff" stroke="#263238" stroke-linecap="round" stroke-linejoin="round"/><path d="M151.192 83.728h8.449V75.3h-8.449v8.428ZM162.251 83.728h8.449V75.3h-8.449v8.428Z" fill="#fff" stroke="#263238" stroke-linecap="round" stroke-linejoin="round"/><path d="M147.815 80.024h-42.923" stroke="#263238" stroke-linecap="round" stroke-linejoin="round"/><path d="M151.192 103.622h8.449v-8.427h-8.449v8.427ZM162.251 103.622h8.449v-8.427h-8.449v8.427Z" fill="#fff" stroke="#263238" stroke-linecap="round" stroke-linejoin="round"/><path d="M147.815 99.912h-42.923" stroke="#263238" stroke-linecap="round" stroke-linejoin="round"/><path d="M151.192 123.517h8.449v-8.428h-8.449v8.428ZM162.251 123.517h8.449v-8.428h-8.449v8.428Z" fill="#fff" stroke="#263238" stroke-linecap="round" stroke-linejoin="round"/><path d="M147.815 119.806h-42.923" stroke="#263238" stroke-linecap="round" stroke-linejoin="round"/><path d="M70.417 83.728h8.449V75.3h-8.45v8.428ZM81.482 83.728h8.45V75.3h-8.45v8.428Z" fill="#fff" stroke="#263238" stroke-linecap="round" stroke-linejoin="round"/><path d="M67.04 80.024H24.115" stroke="#263238" stroke-linecap="round" stroke-linejoin="round"/><path d="M70.417 103.622h8.449v-8.427h-8.45v8.427ZM81.482 103.622h8.45v-8.427h-8.45v8.427Z" fill="#fff" stroke="#263238" stroke-linecap="round" stroke-linejoin="round"/><path d="M67.04 99.912H24.115" stroke="#263238" stroke-linecap="round" stroke-linejoin="round"/><path d="M70.417 123.517h8.449v-8.428h-8.45v8.428ZM81.482 123.517h8.45v-8.428h-8.45v8.428Z" fill="#fff" stroke="#263238" stroke-linecap="round" stroke-linejoin="round"/><path d="M67.04 119.806H24.115" stroke="#263238" stroke-linecap="round" stroke-linejoin="round"/><path d="M36.092 152.491h-9.31v9.286h9.31v-9.286ZM74.08 152.491h-9.308v9.286h9.308v-9.286ZM113.577 152.491h-9.308v9.286h9.308v-9.286Z" fill="#fff" stroke="#263238" stroke-linecap="round" stroke-linejoin="round"/><path d="m84.255 78.122 1.44 2.884 6.971-6.719M84.255 97.793l1.44 2.877 6.971-6.718M72.23 118.42l1.445 2.878 6.972-6.719M164.563 77.886l1.44 2.878 6.972-6.719M152.924 98.028l1.44 2.878 6.972-6.712M152.924 118.24l1.44 2.878 6.972-6.712" stroke="#263238" stroke-width="2" stroke-linecap="round" stroke-linejoin="round"/><path d="M184.277 22.846H14.365v23.567h169.912V22.846Z" fill="#fff" stroke="#263238" stroke-linecap="round" stroke-linejoin="round"/><path d="M184.277 22.846h-6.399v150.863h6.399V22.846Z" fill="#DBDBDB" stroke="#263238" stroke-linecap="round" stroke-linejoin="round"/><path d="M184.277 45.518h-6.399v29.117h6.399V45.518Z" fill="#949494" stroke="#263238" stroke-linecap="round" stroke-linejoin="round"/><path d="M184.277 22.846H14.365v11.46h169.912v-11.46Z" fill="#DBDBDB" stroke="#263238" stroke-linecap="round" stroke-linejoin="round"/><path d="M89.987 26.183H22.98v4.773h67.006v-4.773Z" fill="#fff" stroke="#263238" stroke-linecap="round" stroke-linejoin="round"/><path d="M174.246 26.407h5.881M174.246 28.887h5.881M174.246 31.373h5.881" stroke="#263238" stroke-linecap="round" stroke-linejoin="round"/><path d="M73.72 55.947c0-1.473.778-2.312 2.199-2.312 1.42 0 2.193.839 2.193 2.312v4.773c0 1.467-.773 2.306-2.193 2.306s-2.2-.84-2.2-2.306v-4.773Zm1.451 4.866c0 .653.287.901.748.901.46 0 .747-.248.747-.9V55.84c0-.659-.286-.907-.747-.907s-.748.248-.748.907v4.972ZM80.335 56.276v6.644h-1.302v-9.18h1.813l1.49 5.495V53.74h1.29v9.18h-1.49l-1.8-6.644ZM84.66 53.74h1.451v7.869h2.4v1.311h-3.833l-.018-9.18ZM89.134 53.74h1.445v9.18h-1.445v-9.18ZM92.91 56.276v6.644h-1.284v-9.18h1.813l1.49 5.495V53.74h1.283v9.18h-1.47l-1.833-6.644ZM98.68 57.612h1.987v1.312h-1.988v2.685h2.493v1.311h-3.938v-9.18h3.944v1.312h-2.492l-.007 2.56ZM103.695 53.74h4.468v1.312h-1.514v7.868h-1.446v-7.868h-1.508V53.74ZM110.244 57.612h1.981v1.312h-1.981v2.685h2.492v1.311h-3.944v-9.18h3.944v1.312h-2.492v2.56ZM115.577 53.635c1.408 0 2.131.839 2.131 2.312v.286h-1.365v-.38c0-.658-.261-.907-.722-.907-.461 0-.723.249-.723.907 0 1.865 2.822 2.244 2.822 4.867 0 1.467-.735 2.306-2.155 2.306-1.421 0-2.131-.84-2.131-2.306v-.566h1.37v.66c0 .652.287.888.748.888s.748-.236.748-.889c0-1.864-2.823-2.244-2.823-4.866-.043-1.473.698-2.312 2.1-2.312ZM118.132 53.74h4.467v1.312h-1.508v7.868h-1.426v-7.868h-1.514l-.019-1.312ZM34.029 150.254h-1.464l-.25-1.666h-1.75l-.25 1.666h-1.352l1.47-9.18h2.12l1.476 9.18Zm-3.302-2.915h1.395l-.698-4.643-.697 4.643ZM71.407 143.169v.323c0 .945-.286 1.547-.934 1.864.778.299 1.077.995 1.077 1.964v.752c0 1.417-.747 2.176-2.193 2.176h-2.274v-9.174h2.18c1.502 0 2.144.696 2.144 2.095Zm-2.879-.802v2.424h.567c.536 0 .867-.236.867-.97v-.509c0-.659-.225-.945-.736-.945h-.698Zm0 3.729v2.822h.83c.485 0 .747-.224.747-.908v-.795c0-.858-.274-1.119-.928-1.119h-.649ZM111.277 146.829v1.243c0 1.473-.735 2.312-2.155 2.312-1.421 0-2.156-.839-2.156-2.312v-4.773c0-1.467.735-2.306 2.156-2.306 1.42 0 2.155.839 2.155 2.306v.895h-1.364v-1.025c0-.659-.293-.908-.754-.908s-.748.249-.748.908v4.972c0 .658.293.895.748.895s.754-.237.754-.895v-1.312h1.364Z" fill="#263238"/><path d="M24.77 136.183h110.44" stroke="#263238" stroke-linecap="round" stroke-linejoin="round"/><path opacity=".3" d="M206.166 23.585h12.194V11.422h-12.194v12.163ZM222.135 23.585h12.194V11.422h-12.194v12.163Z" stroke="#000" stroke-linecap="round" stroke-linejoin="round"/><path opacity=".3" d="m208.789 16.233 2.081 4.151 6.118-6.718" stroke="#000" stroke-width="2" stroke-linecap="round" stroke-linejoin="round"/><path opacity=".3" d="M21.58 202.031h12.193v-12.163H21.58v12.163ZM37.543 202.031h12.194v-12.163H37.543v12.163Z" stroke="#000" stroke-linecap="round" stroke-linejoin="round"/><path opacity=".3" d="m24.19 194.679 2.081 4.152 6.119-6.719" stroke="#000" stroke-width="2" stroke-linecap="round" stroke-linejoin="round"/><path opacity=".3" d="M79.344 202.031h12.194v-12.163H79.344v12.163ZM95.315 202.031h12.193v-12.163H95.315v12.163Z" stroke="#000" stroke-linecap="round" stroke-linejoin="round"/><path opacity=".3" d="m81.962 194.679 2.081 4.152 6.119-6.719" stroke="#000" stroke-width="2" stroke-linecap="round" stroke-linejoin="round"/><g opacity=".3" stroke="#000" stroke-linecap="round" stroke-linejoin="round"><path opacity=".3" d="M98.256 17.506c4.267-.688 7.166-4.696 6.477-8.952-.69-4.256-4.707-7.149-8.974-6.46-4.267.687-7.167 4.695-6.477 8.95.69 4.257 4.707 7.15 8.974 6.462Z"/><path opacity=".3" d="M99.196 12.622 97.01 9.8V5.356"/></g><g opacity=".3"><path opacity=".3" d="M243.083 159.526h-1.159l-.199-1.317h-1.409l-.199 1.317h-1.053l1.171-7.277h1.676l1.172 7.277Zm-2.617-2.305h1.103l-.555-3.686-.548 3.686ZM259.402 153.92v.261a1.419 1.419 0 0 1-.736 1.467 1.483 1.483 0 0 1 .854 1.56v.622a1.547 1.547 0 0 1-1.745 1.721h-1.8v-7.302h1.732c1.184 0 1.695.546 1.695 1.671Zm-2.281-.621v1.927h.449c.423 0 .685-.187.685-.771v-.404c0-.522-.174-.752-.586-.752h-.548Zm0 2.964v2.238h.654c.387 0 .623-.174.623-.715v-.621c0-.672-.224-.883-.741-.883l-.536-.019ZM275.925 156.842v.963c0 1.168-.579 1.833-1.707 1.833-1.128 0-1.714-.665-1.714-1.833v-3.785c0-1.168.586-1.833 1.714-1.833 1.128 0 1.707.665 1.707 1.833v.708h-1.084v-.807c0-.523-.231-.715-.592-.715s-.623.192-.623.715v3.934c0 .522.23.708.623.708s.592-.186.592-.708v-1.013h1.084Z" fill="#000"/><path opacity=".3" d="M245.363 163.498h-8.866v8.844h8.866v-8.844ZM261.856 163.498h-8.866v8.844h8.866v-8.844ZM278.349 163.498h-8.866v8.844h8.866v-8.844Z" stroke="#000" stroke-miterlimit="10"/></g><path d="M35.2 265.953H16.44M280 265.953H41.312" stroke="#263238" stroke-miterlimit="10"/><path d="m207.916 265.742 4.013-60.783 2.953-28.9-8.1-9.018-4.062-2.946s-5.72 4.972-9.776 6.072a731.943 731.943 0 0 0-7.957 2.212s-13.838 25.954-14.954 37.732c-1.115 11.777-2.953 55.407-2.953 55.407l1.539.224h39.297Z" fill="#9E9E9E" stroke="#263238" stroke-miterlimit="10"/><path d="M188.894 215.63s-.692-.355.692-3.91" stroke="#263238" stroke-miterlimit="10"/><path d="M187.268 171.758c.688 4.91 1.068 9.859 1.14 14.816 0 0 4.156-1.659 7.477-7.458a67.04 67.04 0 0 0 4.723-9.732l-13.34 2.374Z" fill="#263238" stroke="#263238" stroke-miterlimit="10"/><path d="m207.917 265.742 3.607-54.649c-3.539 1.802-10.523 4.779-18.231 4.91-9.234.155-20.667-6.999-20.667-6.999l-2.574 1.007v.1c-1.109 11.808-2.953 55.407-2.953 55.407l1.539.224h39.279Z" fill="#fff" stroke="#263238" stroke-miterlimit="10"/><path d="M201.91 235.151c0 14.077.486 27.62.623 30.578h27.197c.374-4.388 2.717-31.697 3.92-41.485 1.314-10.696 9.938-26.619 9.938-32.319 0-5.699 1.75-4.798-6.125-8.943-7.876-4.146-25.247-13.095-27.652-14.189-2.405-1.094-5.035-3.729-5.035-3.729s.873 5.457.623 20.292c-.249 14.835-3.489 33.878-3.489 49.795Z" fill="#fff"/><g opacity=".2" fill="#000"><path opacity=".2" d="M204.776 165.12a73.36 73.36 0 0 1 .561 7.781v-7.253c-.349-.317-.561-.528-.561-.528ZM240.541 200.639v1.864c.212-.565.423-1.112.623-1.653v-.223h.081c.081-.206.156-.417.23-.622h-.311v-7.738h2.411v-.621h-2.411v-6.625c-.193-.119-.399-.23-.623-.355v6.98h-6.543v-7.769h5.06l-1.172-.622h-3.888v-2.05l-.623-.33v2.362h-6.542v-5.755l-.623-.323v6.078h-6.542v-7.75h3.258l-1.208-.622h-2.05v-1.05l-.623-.323v1.373h-6.543v-4.692c-.218-.112-.423-.218-.623-.311v5.003h-6.48v.622h6.48v7.768h-6.424v.622h6.424v7.769h-6.542v-2.952c-.125 3.033-.349 6.215-.623 9.453v1.864h-.162l-.056.622h.218v7.793h-.935l-.062.622h1.028v7.769h-1.769l-.057.621h1.826v7.769h-2.43l-.037.621h2.492v7.769h-2.76v.622h2.766v7.769h-2.748v.621h2.742v7.769h-2.617v.621h2.605v14.761h.623v-14.779h6.498v14.76h.623v-14.76h6.543v14.76h.623v-14.76h6.542v14.76h.623v-14.76h4.193c0-.205 0-.41.056-.622h-4.249v-7.75h4.985c0-.205.043-.41.062-.621h-5.047v-7.769h5.757c0-.212.038-.41.063-.622h-5.82v-7.769h6.542v.827l.275-2.38a32.96 32.96 0 0 1 .348-2.157v-4.68h1.166l.187-.621h-1.353v-7.769h4.05c.081-.205.156-.417.237-.622h-4.287v-7.768l6.543-.019Zm-6.543-8.372h6.543v7.769h-6.543v-7.769Zm-22.119 58.092h-6.542v-7.75h6.542v7.75Zm0-8.39h-6.542V234.2h6.542v7.769Zm0-8.39h-6.542v-7.751h6.542v7.751Zm0-8.391h-6.542v-7.768h6.542v7.768Zm0-8.39h-6.542v-7.75h6.542v7.75Zm0-8.39h-6.542v-7.769h6.542v7.769Zm0-8.391h-6.542v-7.75h6.542v7.75Zm7.166 50.342h-6.543v-7.75h6.543v7.75Zm0-8.39h-6.543V234.2h6.543v7.769Zm0-8.39h-6.543v-7.751h6.543v7.751Zm0-8.391h-6.543v-7.768h6.543v7.768Zm0-8.39h-6.543v-7.75h6.543v7.75Zm0-8.39h-6.543v-7.769h6.543v7.769Zm0-8.391h-6.543v-7.75h6.543v7.75Zm0-8.39h-6.543v-7.769h6.543v7.769Zm0-8.39h-6.543v-7.75h6.543v7.75Zm7.165 67.122h-6.542v-7.75h6.542v7.75Zm0-8.39h-6.542V234.2h6.542v7.769Zm0-8.39h-6.542v-7.751h6.542v7.751Zm0-8.391h-6.542v-7.768h6.542v7.768Zm0-8.39h-6.542v-7.75h6.542v7.75Zm0-8.39h-6.542v-7.769h6.542v7.769Zm0-8.391h-6.542v-7.75h6.542v7.75Zm0-8.39h-6.542v-7.769h6.542v7.769Zm7.165 33.561h-6.542v-7.768h6.542v7.768Zm0-8.39h-6.542v-7.75h6.542v7.75Zm0-8.39h-6.542v-7.769h6.542v7.769Zm0-8.391h-6.542v-7.75h6.542v7.75Zm0-8.39h-6.542v-7.769h6.542v7.769Z"/></g><path d="M201.91 235.151c0 14.077.486 27.62.623 30.578h27.197c.374-4.388 2.717-31.697 3.92-41.485 1.314-10.696 9.938-26.619 9.938-32.319 0-5.699 1.75-4.798-6.125-8.943-7.876-4.146-25.247-13.095-27.652-14.189-2.405-1.094-5.035-3.729-5.035-3.729s.873 5.457.623 20.292c-.249 14.835-3.489 33.878-3.489 49.795Z" stroke="#263238" stroke-miterlimit="10"/><path d="M204.776 165.12s.873 5.457.623 20.292c-.049 3.729-.305 7.757-.623 11.908.748-1.025 3.159-4.301 3.739-4.487.654-.218 4.156 3.058 6.997 3.493 2.841.435 3.938.435.878-2.84-3.059-3.276-4.361-12.872-5.47-20.075a27.868 27.868 0 0 0-1.016-4.549h-.075c-2.429-1.119-5.053-3.742-5.053-3.742Z" fill="#263238" stroke="#263238" stroke-miterlimit="10"/><path d="M222.727 232.615c2.013-.913 3.595-1.703 3.595-1.703l.742 5.706s-10.892 4.785-16.979 5.152c-6.088.367-6.642.553-6.642.553l.181-5.519" stroke="#263238" stroke-miterlimit="10"/><path d="M217.275 234.847c1.115-.373 2.424-.902 3.701-1.455M205.648 236.251a73.19 73.19 0 0 0 9.509-.864M227.063 236.618l.368 4.419" stroke="#263238" stroke-miterlimit="10"/><path d="M143.584 265.742h30.605c.069-2.393.954-32.803 1.552-48.322.623-16.159 11.614-40.672 11.614-40.672s1.47-3.455-.087-5.009c-1.558-1.554-5.297-.932-8.1 1.243-2.804 2.175-28.662 13.362-30.219 14.916-1.558 1.554-1.247 6.837-1.87 13.052s-10.903 49.099-10.903 49.099-2.804.621-3.739 1.243c-.935.621-.935 2.486-.935 2.486s1.247.31 4.985 2.175c3.439 1.715 6.611 8.676 7.097 9.789Z" fill="#fff"/><path opacity=".2" d="M183.218 183.858v3.176c.212-.572.417-1.125.623-1.659v-1.517h.585l.243-.621h-.828v-7.75h3.925c.044-.193.094-.404.125-.622h-4.05v-3.903a7.574 7.574 0 0 0-.623.112v3.791h-6.543v-.422l-.623.317v.105h-.211l-1.247.622h1.458v7.769h-6.542v-5.345l-.623.292v5.034h-6.542v-1.983l-.623.292v1.691h-3.62l-1.321.621h4.941v7.788h-6.543v-7.023l-.623.298v6.725h-6.542v-1.566a54.936 54.936 0 0 0-.623 6.836v3.108h-.224l-.056.621h.28v7.781h-1.676l-.131.622h1.807v7.769h-3.496c-.043.205-.093.416-.137.621h3.633v7.769h-5.39c-.05.211-.093.416-.143.622h5.533v7.768h-6.542v-3.418l-.623 2.685v.702h-.162l-.144.622h.306v7.8h-2.131l-.15.621h2.281v7.769h-5.29c-.635.169-1.26.377-1.87.621v3.381c.187.075.393.162.623.268v-3.649h6.537v8.702c.218.31.423.621.623.938v-9.633h6.542v14.76h.623v-14.785h6.542v14.761h.623v-14.761h6.543v14.761h.623v-14.761h6.542v14.761h.623v-14.761h5.116v-.622h-5.116v-7.75h5.377v-.621h-5.377v-7.769h5.645v-.622h-5.645v-7.768h5.926v-.622h-5.926v-7.769h6.231c0-.205 0-.41.031-.621h-6.262v-7.769h6.542v4.593c.162-1.324.368-2.685.623-4.065v-.528h.1c.038-.205.081-.41.119-.622h-.219v-7.768h2.088c.056-.205.118-.411.174-.622h-2.262v-7.769h4.674c.074-.205.143-.416.211-.621h-4.885v-7.769l6.543-.019Zm-6.543-8.371h6.543v7.769h-6.543v-7.769Zm-29.284 74.891h-6.542v-7.769h6.542v7.769Zm0-8.39h-6.542v-7.769h6.542v7.769Zm7.165 8.39h-6.542v-7.769h6.542v7.769Zm0-8.39h-6.542v-7.769h6.542v7.769Zm0-8.391h-6.542v-7.768h6.542v7.768Zm0-8.39h-6.542v-7.769h6.542v7.769Zm0-8.39h-6.542v-7.769h6.542v7.769Zm0-8.391h-6.542v-7.768h6.542v7.768Zm0-8.39h-6.542v-7.769h6.542v7.769Zm7.166 50.342h-6.543v-7.769h6.543v7.769Zm0-8.39h-6.543v-7.769h6.543v7.769Zm0-8.391h-6.543v-7.768h6.543v7.768Zm0-8.39h-6.543v-7.769h6.543v7.769Zm0-8.39h-6.543v-7.769h6.543v7.769Zm0-8.391h-6.543v-7.768h6.543v7.768Zm0-8.39h-6.543v-7.769h6.543v7.769Zm7.165 50.342h-6.542v-7.769h6.542v7.769Zm0-8.39h-6.542v-7.769h6.542v7.769Zm0-8.391h-6.542v-7.768h6.542v7.768Zm0-8.39h-6.542v-7.769h6.542v7.769Zm0-8.39h-6.542v-7.769h6.542v7.769Zm0-8.391h-6.542v-7.768h6.542v7.768Zm0-8.39h-6.542v-7.769h6.542v7.769Zm0-8.39h-6.542v-7.769h6.542v7.769Zm7.165 16.78h-6.542v-7.768h6.542v7.768Zm0-8.39h-6.542v-7.769h6.542v7.769Zm0-8.39h-6.542v-7.769h6.542v7.769Z" fill="#000"/><path d="M143.584 265.742h30.605c.069-2.393.954-32.803 1.552-48.322.623-16.159 11.614-40.672 11.614-40.672s1.47-3.455-.087-5.009c-1.558-1.554-5.297-.932-8.1 1.243-2.804 2.175-28.662 13.362-30.219 14.916-1.558 1.554-1.247 6.837-1.87 13.052s-10.903 49.099-10.903 49.099-2.804.621-3.739 1.243c-.935.621-.935 2.486-.935 2.486s1.247.31 4.985 2.175c3.439 1.715 6.611 8.676 7.097 9.789Z" stroke="#263238" stroke-miterlimit="10"/><path d="M131.502 253.796s1.247.311 4.985 2.176c3.738 1.864 7.165 9.944 7.165 9.944h6.038c.38-1.132 1.308-5.246-2.922-10.255-4.985-5.904-10.592-5.594-10.592-5.594s-2.804.622-3.739 1.243c-.935.622-.935 2.486-.935 2.486ZM183.504 170.999c-1.339 3.537-4.511 11.536-7.14 15.345-3.427 4.972-9.658 9.012-7.477 10.877 2.181 1.864 8.411-4.04 8.411-4.04s1.558 4.351 1.87 5.594a.46.46 0 0 0 .081.155 195.014 195.014 0 0 1 8.1-22.182s1.47-3.455-.088-5.009c-.803-.808-2.174-1.019-3.757-.74Z" fill="#263238" stroke="#263238" stroke-miterlimit="10"/><path d="M160.75 200.999c.178-1.149.295-2.306.348-3.468M155.802 266.518s.935-19.888.935-31.386c0-8.284 2.262-22.218 3.533-30.752" stroke="#263238" stroke-miterlimit="10"/><path d="M157.36 230.801s4.984 1.553 7.477 1.864l7.477.932-.567 7.042s-.368-.205-5.976-2.07c-5.607-1.864-9.034-3.418-9.034-3.418" stroke="#263238" stroke-miterlimit="10"/><path d="M171.747 240.62s-.368 13.798-.368 15.662c0 1.865-5.608.622-5.608.622" stroke="#263238" stroke-miterlimit="10"/><path d="M176.22 164.436s5.876 8.428 11.135 12.312c5.258 3.885 9.745-1.553 13.252-7.383 3.508-5.83 5.845-10.106 7.596-15.159 1.751-5.052 0-13.405-7.01-20.012-7.009-6.607-23.384-16.327-27.471-11.274-4.088 5.053-7.988 16.159-5.265 25.649a50.074 50.074 0 0 0 7.763 15.867Z" fill="#9E9E9E" stroke="#263238" stroke-miterlimit="10"/><path d="M173.747 146.307a11.866 11.866 0 0 1 6.798 0" stroke="#263238" stroke-width="2" stroke-miterlimit="10" stroke-linecap="round"/><path d="M178.775 151.509c.187 1.007-.05 1.896-.529 1.983-.48.087-1.01-.659-1.197-1.672-.187-1.013.05-1.896.53-1.983.48-.087 1.009.659 1.196 1.672ZM196.109 151.776c.181 1.007-.056 1.865-.529 1.983-.474.118-1.01-.659-1.197-1.672-.187-1.013.05-1.896.53-1.983.48-.087 1.009.659 1.196 1.672Z" fill="#263238"/><path d="M183.268 165.481a18.396 18.396 0 0 0 7.009.969c4.094-.193 7.602-3.107 7.602-3.107" stroke="#263238" stroke-miterlimit="10"/><path d="M174.327 127.215s8.654 19.689 9.738 20.229c1.084.541 3.247-5.935 3.247-5.935s2.972 5.389 6.498 7.011c3.527 1.622 4.598-1.076 4.598-1.076a60.477 60.477 0 0 1 5.141 3.239l1.352 1.075 1.352 4.854s-4.056 13.219-2.704 14.841c1.352 1.622 8.922-.541 8.922-.541s-1.869 2.698.542 2.698c2.412 0 6.761.541 12.979-7.825 6.218-8.365 6.76-21.846 6.76-21.846s2.972 3.232 3.247-.814c.274-4.046-3.515-10.789-3.515-10.789s5.945 5.935 5.409-.268c-.536-6.202-4.056-13.219-5.409-14.835-1.352-1.616-9.47-6.215-9.47-6.215s3.246-.541.816-4.319c-2.43-3.779-11.359-4.854-14.605-4.854-3.246 0-10.007 1.081-10.007 1.081s4.331-8.365-.267-8.906c-4.599-.54-12.711 8.365-12.711 8.365s-8.1-6.476-10.549-5.127c-2.449 1.349-.81 3.238-.81 3.238s-10.542.808-13.521 5.395c-2.978 4.586.543 7.284.543 7.284s-18.93 12.946-15.957 17.8c2.972 4.854 8.386.273 8.386.273s-7.576 19.422-6.492 20.771c1.084 1.348 6.23-.541 6.23-.541s-.267 15.643 3.789 17.265c4.056 1.623 4.866-1.348 4.866-1.348s2.162 2.156 7.034 2.424c4.873.267 6.487-5.395 6.487-5.395s-5.409-12.679-5.134-23.195c.274-10.515 3.215-14.014 3.215-14.014Z" fill="#263238" stroke="#263238" stroke-miterlimit="10"/><path d="M185.218 149.93s-1.951 10.106-.393 12.244 7.016 0 7.402-1.162" fill="#9E9E9E"/><path d="M185.218 149.93s-1.951 10.106-.393 12.244 7.016 0 7.402-1.162" stroke="#263238" stroke-miterlimit="10"/><path d="M177.13 156.152c4.25 0 7.695-2.524 7.695-5.638 0-3.113-3.445-5.637-7.695-5.637s-7.695 2.524-7.695 5.637c0 3.114 3.445 5.638 7.695 5.638ZM195.635 155.766c4.25 0 7.695-2.523 7.695-5.637 0-3.113-3.445-5.637-7.695-5.637-4.249 0-7.695 2.524-7.695 5.637 0 3.114 3.446 5.637 7.695 5.637Z" stroke="#263238" stroke-miterlimit="10"/><path d="M185.218 149.931s1.557-1.163 2.723.198" stroke="#263238" stroke-miterlimit="10"/><path d="M121.103 257.469s9.782-2.753 12.792-3.25c3.009-.497 9.034 5.003 10.037 8.005 1.004 3.002-.28 3.673-.28 3.673l-20.044-.665-2.505-7.763Z" fill="#9E9E9E" stroke="#263238" stroke-miterlimit="10"/><path d="M124.649 256.5s7.383 2.759 9.227 3.865c1.845 1.107 1.29 3.313.187 4.413a10.431 10.431 0 0 1-4.617 2.213c-1.72.097-3.445.097-5.165 0-2.212-.187-4.243.186-6.087.186-1.845 0-7.384-.553-7.384-.553l-1.663-1.106s-3.116.92-5.533 1.864c-2.418.945-1.664-1.106.18-2.579 1.845-1.473 6.462-5.152 7.203-5.519.742-.367 10.15-3.107 10.15-3.107l3.502.323Z" fill="#9E9E9E" stroke="#263238" stroke-miterlimit="10"/><path d="M127.415 257.233s-4.804-2.206-6.094-2.206c-1.289 0-10.517 3.107-11.807 4.046-1.29.938-2.586 9.757-1.663 10.311.922.553 1.663-1.107 1.869-2.207.205-1.1 2.772-6.998 2.772-6.998l-1.869 9.391s.742 1.467 1.477.18c.735-1.286 5.352-10.124 5.72-10.677a6.758 6.758 0 0 1 1.663-1.287s-.922 4.053-1.663 7.918c-.742 3.866-.181 4.972.928 5.153 1.109.18 1.658-2.393 2.212-3.68.555-1.286 2.953-8.657 2.953-8.657" fill="#9E9E9E"/><path d="M127.415 257.233s-4.804-2.206-6.094-2.206c-1.289 0-10.517 3.107-11.807 4.046-1.29.938-2.586 9.757-1.663 10.311.922.553 1.663-1.107 1.869-2.207.205-1.1 2.772-6.998 2.772-6.998l-1.869 9.391s.742 1.467 1.477.18c.735-1.286 5.352-10.124 5.72-10.677a6.758 6.758 0 0 1 1.663-1.287s-.922 4.053-1.663 7.918c-.742 3.866-.181 4.972.928 5.153 1.109.18 1.658-2.393 2.212-3.68.555-1.286 2.953-8.657 2.953-8.657" stroke="#263238" stroke-miterlimit="10"/><path d="M132.749 260.919s-5.533 5.705-6.275 6.992c-.741 1.286-.735 1.473 1.296 1.473 2.032 0 8.306-4.053 8.854-4.606.548-.553.374-2.206-.922-3.312a3.273 3.273 0 0 0-2.953-.547ZM167.304 260.285s-7.383 2.38-9.196 3.729c-1.813 1.348-4.43 2.834-3.863 3.287.567.454 2.386 0 2.953-.453.567-.454 3.178-.908 3.178-.908s3.065-1.814 5.452-3.281c2.386-1.467 4.199-3.058 1.476-2.374Z" fill="#9E9E9E" stroke="#263238" stroke-miterlimit="10"/><path d="M208.059 247.817s-20.561 3.729-28.001 6.334c-7.439 2.604-10.399 4.418-14.119 7.041-3.719 2.623-11.259 7.576-10.137 8.446 1.122.871 5.028-2.181 5.689-2.834.66-.652 5.464-2.616 5.464-2.616l3.215-1.641s-4.841 5.948-6.586 7.458c-1.744 1.51-.567 2.455.748 2.02 1.315-.435 3.794-3.039 3.794-3.039l7.994-5.246s-3.283 4.587-4.816 5.892c-1.533 1.305 1.751 2.405 2.411 1.312.661-1.094 3.938-3.928 3.938-3.928s5.465-2.834 6.779-3.928c1.315-1.094 4.592-4.146 4.592-4.146l24.5 1.964s1.532-.87.66-5.892c-.872-5.021-6.125-7.197-6.125-7.197Z" fill="#9E9E9E" stroke="#263238" stroke-miterlimit="10"/><path d="m224.683 209.197 12.032 29.683-19.471 6.762 5.47 15.929s13.982.038 24.923-.621c10.941-.659 18.618-7.241 16.867-15.09-1.751-7.85-8.312-19.205-13.564-32.735-5.253-13.53-3.627-21.597-6.032-25.743-2.405-4.145-9.19-5.239-9.19-5.239l-3.739-.622" fill="#fff"/><path opacity=".2" d="M262.66 254.114v-3.108h1.626c.068-.205.125-.41.174-.622h-1.8v-7.775h.934c-.068-.198-.143-.41-.212-.621h-.722v-1.896c-.2-.515-.405-1.044-.623-1.572v3.468h-6.543v-7.769h4.698c-.093-.205-.18-.41-.274-.621h-4.424v-7.769h.873c-.1-.205-.193-.41-.287-.622h-.586v-1.299c-.205-.459-.417-.919-.623-1.386v2.685h-6.542v-7.768h4.362a18.006 18.006 0 0 1-.256-.622h-4.106v-7.769h1.165c-.068-.205-.131-.416-.193-.621h-.972v-3.543a74.722 74.722 0 0 1-.623-2.821v6.364h-6.542v-7.769h6.28l-.112-.622h-6.168v-7.768h5.115l-.093-.622h-5.022v-7.619a17.655 17.655 0 0 0-1.683-.79h-5.483v-1.392l-.623-.112v1.504h-1.838l-.168.622h2.006v7.787h-4.05l-.162.622h4.218v7.768h-6.274l-.168.622h6.436v7.769h-6.542v-7.371l-.623 2.355v4.972h-1.321l-.162.622h1.483v3.934l.623 1.535v-5.426h6.542v7.769h-5.607l.249.622h5.358v7.768h-2.181l.256.622h1.956v4.829l.623 1.535v-6.364h6.512v7.769h-5.976l.256.621h5.72v7.769h-6.543v-2.15l-.623.217v1.933h-5.57l-1.795.621h.2v7.769h-6.542v-5.593l-.624.217v5.345h-.18l.804 2.337v-1.715h6.542v10.565h.623v-10.565h6.542v10.484h.623v-10.472h6.543v10.274h.623v-10.274h6.542v9.944l.623-.05v-9.894h6.542v8.527l.623-.236v-8.291h6.543v3.903c.218-.255.43-.509.623-.77Zm-29.285-3.73h-6.542v-7.775h6.542v7.775Zm7.166 0h-6.543v-7.775h6.543v7.775Zm0-25.17h-6.543v-7.769h6.543v7.769Zm0-8.391h-6.543v-7.775h6.543v7.775Zm0-8.39h-6.543v-7.769h6.543v7.769Zm0-8.39h-6.543v-7.775h6.543v7.775Zm0-8.391h-6.543v-7.768h6.543v7.768Zm7.165 58.732h-6.542v-7.775h6.542v7.775Zm0-8.39h-6.542v-7.769h6.542v7.769Zm0-8.39h-6.542v-7.775h6.542v7.775Zm0-8.39h-6.542v-7.769h6.542v7.769Zm0-8.391h-6.542v-7.775h6.542v7.775Zm7.165 33.561h-6.542v-7.775h6.542v7.775Zm0-8.39h-6.542v-7.769h6.542v7.769Zm0-8.39h-6.542v-7.775h6.542v7.775Zm.623 16.78v-7.775h6.543v7.769l-6.543.006Z" fill="#263238"/><path d="m224.683 209.197 12.032 29.683-19.471 6.762 5.47 15.929s13.982.038 24.923-.621c10.941-.659 18.618-7.241 16.867-15.09-1.751-7.85-8.312-19.205-13.564-32.735-5.253-13.53-3.627-21.597-6.032-25.743-2.405-4.145-9.19-5.239-9.19-5.239l-3.739-.622" stroke="#263238" stroke-miterlimit="10"/><path d="M248.429 235.86a87.373 87.373 0 0 0-11.714 3.014s8.312-5.457 12.904-5.892M253.999 235.599a12 12 0 0 0-2.604-.088" stroke="#263238" stroke-miterlimit="10"/><path d="M222.932 243.231s4.424 4.22 5.733 7.489c1.308 3.269.828 12.15-.044 13.02-.872.87-17.153.765-19.832-2.573-.698-.87 4.081-2.877 1.676-7.682-2.405-4.804-3.502-5.233-3.502-5.233s-1.969-1.094 1.751-3.493c3.72-2.399 12.25-4.139 14.218-1.528Z" fill="#263238" stroke="#263238" stroke-miterlimit="10"/><path d="M261.72 276.879h-16.15l-2.019-31.846h20.187l-2.018 31.846Z" fill="#263238" stroke="#263238" stroke-linejoin="round"/><path d="M264.636 245.083H242.66v4.636h21.976v-4.636Z" fill="#fff" stroke="#263238" stroke-linejoin="round"/><path d="M264.636 245.257H242.66l2.193-2.747h17.583l2.2 2.747ZM262.311 267.538l.804-12.685h-18.942l.804 12.685h17.334Z" fill="#fff" stroke="#263238" stroke-linejoin="round"/><path d="m168.65 278.998 19.901-5.246v2.685L168.65 282v-3.002Z" fill="#263238" stroke="#263238" stroke-linejoin="round"/><path d="M188.551 273.752H84.504l-20.113 5.246H168.65l19.901-5.246Z" fill="#fff" stroke="#263238" stroke-linejoin="round"/><path d="M168.65 219.023H64.391V282H168.65v-62.977Z" fill="#fff" stroke="#263238" stroke-linejoin="round"/><path d="M168.65 228.134c-22.68 1.075-36.188 21.927-56.257 35.898-18.294 12.741-40.886 14.916-47.977 15.258V282H168.65v-53.866Z" fill="#263238" stroke="#263238" stroke-linejoin="round"/><path d="M168.65 278.998H64.391V282H168.65v-3.002Z" fill="#fff" stroke="#263238" stroke-miterlimit="10"/><path d="M33.524 258.221s-8.686-13.859-1.713-21.659c6.972-7.8 18.237-4.046 20.56 3.176 2.325 7.222-2.604 19.354-2.604 19.354l-16.243-.871Z" fill="#fff" stroke="#263238" stroke-linecap="round" stroke-linejoin="round"/><path d="M33.81 242.336c-1.445 0-6.947-2.02-8.685-4.618-1.738-2.598-2.037-8.378 2.897-8.378 4.935 0 6.661 8.664 6.661 8.664l.287 3.176" fill="#fff"/><path d="M33.81 242.336c-1.445 0-6.947-2.02-8.685-4.618-1.738-2.598-2.037-8.378 2.897-8.378 4.935 0 6.661 8.664 6.661 8.664l.287 3.176" stroke="#263238" stroke-linecap="round" stroke-linejoin="round"/><path d="M38.266 236.941c-1.296-.621-5.315-4.897-5.708-7.998-.392-3.102 1.938-8.397 6.343-6.215 4.405 2.181 2.081 10.72 2.081 10.72l-1.165 2.971" fill="#fff"/><path d="M38.266 236.941c-1.296-.621-5.315-4.897-5.708-7.998-.392-3.102 1.938-8.397 6.343-6.215 4.405 2.181 2.081 10.72 2.081 10.72l-1.165 2.971" stroke="#263238" stroke-linecap="round" stroke-linejoin="round"/><path d="M43.525 238.396c-.723-1.243-1.695-7.017-.3-9.814 1.396-2.797 6.281-5.917 8.724-1.653 2.442 4.263-4.231 10.068-4.231 10.068l-2.623 1.827" fill="#fff"/><path d="M43.525 238.396c-.723-1.243-1.695-7.017-.3-9.814 1.396-2.797 6.281-5.917 8.724-1.653 2.442 4.263-4.231 10.068-4.231 10.068l-2.623 1.827" stroke="#263238" stroke-linecap="round" stroke-linejoin="round"/><path d="M45.25 248.75c-.237-1.429.848-7.172 3.116-9.323 2.268-2.15 7.944-3.387 8.76 1.455.816 4.841-7.477 7.992-7.477 7.992l-3.115.808" fill="#fff"/><path d="M45.25 248.75c-.237-1.429.848-7.172 3.116-9.323 2.268-2.15 7.944-3.387 8.76 1.455.816 4.841-7.477 7.992-7.477 7.992l-3.115.808" stroke="#263238" stroke-linecap="round" stroke-linejoin="round"/><path d="m25.76 234.232.978 1.535M28.558 237.998l1.533 1.249M26.882 231.304l1.533 2.231M30.515 235.35l1.676 3.064M34.421 227.961l.561 1.672M36.378 232.696l.978 1.399M35.96 224.617l1.26 2.784M31.07 244.269l.423 2.504M32.328 249.141l.56 2.095M33.723 244.406l.56 2.784M35.543 249.141l.417 2.095M36.521 240.782l.835 3.904M38.477 248.445l.138 1.815M40.01 239.527l.699 3.623M40.708 246.916l.28 3.76M44.066 240.919v3.07M43.643 247.892l.143 2.368M47.556 226.425l-.698 1.678M46.577 230.049l-.698 2.374M50.627 229.633l-1.115 2.231M47.138 234.375l-1.259 1.392M44.484 229.496l-.418 1.808M50.627 239.527l-1.532 2.511M48.117 243.566l-.842 2.232M49.376 246.916l2.51-1.398M53.425 239.527l-1.258 2.094M54.684 241.895l-1.676 1.255" stroke="#fff" stroke-linecap="round" stroke-linejoin="round"/><path d="M52.877 253.386H29.125v23.692h23.752v-23.692Z" fill="#263238" stroke="#263238" stroke-linecap="round" stroke-linejoin="round"/></svg>